<svg xmlns="http://www.w3.org/2000/svg" viewBox="0 0 1603.08 454.26"><defs><style>.a{opacity:0.15;}.b{fill:#fff;}</style></defs><title>SMU_BackDrop_Light</title><g class="a"><path class="b" d="M-111.36-94.84c6.72-.13,13.25,0,19.54.31,18.58-22.58,40.51-42.08,64.31-59.37-5.75.75-11.94,1.72-18.52,2.9C-44.82-153.32-111.21-97.3-111.36-94.84Z" transform="translate(803.98 234.36)"/><path class="b" d="M279.12,55.2a140.68,140.68,0,0,0,44.53,1.42c7.57-67.78,4.48-117.26-4.75-154.61a417.26,417.26,0,0,1-49.07-.91C276-61.41,279.67-12.16,279.12,55.2Z" transform="translate(803.98 234.36)"/><path class="b" d="M-41.12-175.63c-28.23,13.45-56.23,28-83.27,44,8.61-2.85,16.76-5.46,24.37-7.8,27.46-16.21,55.68-30.83,84-44.23C-23.73-181.26-32.13-178.57-41.12-175.63Z" transform="translate(803.98 234.36)"/><path class="b" d="M-20.71-126.55c5.35,0.65,10.71,1.49,16,2.52,21-24.45,44.21-44.33,68.23-61.48-4,0-8.24.08-12.7,0.36C25.86-168.59,1.58-149.56-20.71-126.55Z" transform="translate(803.98 234.36)"/><path class="b" d="M31.63-114.42c5.24,1.73,10.74,3.61,16.41,5.64a273.43,273.43,0,0,1,52-72.73c-3.64-.73-7.2-1.38-10.7-1.91A295.94,295.94,0,0,0,31.63-114.42Z" transform="translate(803.98 234.36)"/><path class="b" d="M49.66-108.19c5.42,2,11.16,4.16,17.13,6.45a259.76,259.76,0,0,1,45.09-77.11c-3.64-.89-7.25-1.71-10.79-2.45A271.69,271.69,0,0,0,49.66-108.19Z" transform="translate(803.98 234.36)"/><path class="b" d="M131-76.23q10.11,4,20.77,8c1.54-41.91,6.77-72.27,13.75-96.47q-7-1.74-13.49-3.48C142.56-144.89,134.87-115.89,131-76.23Z" transform="translate(803.98 234.36)"/><path class="b" d="M-117.6-150.21c-22.52,11-44.58,22.52-65.83,34.67,12.49-4.34,24.31-8.42,35.28-12.12C-125-140.74-101.06-153-76.86-164.5-89.55-160.1-103.19-155.31-117.6-150.21Z" transform="translate(803.98 234.36)"/><path class="b" d="M-12.88-184.64C-53.66-165.12-94-143.06-131.39-117.23q13.16-3,25-5.07c38.28-27.45,79.42-50.27,120.69-70.2C6-190.17-3.13-187.54-12.88-184.64Z" transform="translate(803.98 234.36)"/><path class="b" d="M-71.08-145.86c-23.8,15.75-45.93,33.09-65.29,52.48,7.7-.74,15.44-1.22,22.94-1.41,19.18-20.94,41.4-39.33,65.37-55.83C-55.36-149.27-63.07-147.67-71.08-145.86Z" transform="translate(803.98 234.36)"/><path class="b" d="M16.68-193.16c-27.17,13-54.5,27.26-81.33,43.27,7.79-1.77,15.2-3.31,22.09-4.58,27.11-16.74,54.62-31.42,81.86-44.7C32.38-197.41,24.81-195.4,16.68-193.16Z" transform="translate(803.98 234.36)"/><path class="b" d="M41.32-199.68q-19.11,9.24-38.47,19.46c6.68-1.49,13-2.77,18.81-3.83Q41-194.67,60.09-204.11C54.29-202.83,48-201.35,41.32-199.68Z" transform="translate(803.98 234.36)"/><path class="b" d="M-58.56-127.94c6-.25,12-0.29,17.92-0.12,37.4-33.1,77.88-58.2,118-79.52-4.82.86-10.06,1.91-15.61,3.11C20.89-183.61-20.3-159.22-58.56-127.94Z" transform="translate(803.98 234.36)"/><path class="b" d="M-39-128c5.69,0.22,11.27.65,16.71,1.25,35.9-35.27,75.16-61.2,114.1-83.08-4.12.53-8.49,1.19-13.08,2C38.71-186.46-1.69-161.28-39-128Z" transform="translate(803.98 234.36)"/><path class="b" d="M14.14-119.64c5.15,1.4,10.48,3,15.92,4.72,28.08-43.08,61-71.94,94.18-95.89-2.79-.23-5.62-0.39-8.51-0.44H115.6C80.3-188,45.08-160.12,14.14-119.64h0Zm-17-4.48c4.87,1.39,9.89,3,15,4.72C43.32-159.84,78.77-187.75,114.32-211c-2.76-.22-5.58-0.36-8.47-0.4h-0.14c0.07,0.47-28.12,15.95-57.87,38.31C21.87-152.31-3-124.6-2.84-124.13Z" transform="translate(803.98 234.36)"/><path class="b" d="M269.14-103c7.52,0.6,15.22,1,23.08,1.24a419.43,419.43,0,0,0-16-46.25q-9.68-.4-19-1.17C261.24-135.9,265.23-120.77,269.14-103Z" transform="translate(803.98 234.36)"/><path class="b" d="M226.81-44.33q11.38,2.87,23.23,5.09c-2.27-24-4.53-44.53-6.81-62.46q-11-1.48-21.49-3.4C223.15-87.62,224.8-67.6,226.81-44.33Z" transform="translate(803.98 234.36)"/><path class="b" d="M252.33-38.82q11.67,2.17,23.87,3.5c-2.4-24.49-5.25-45.48-8.45-63.73q-11.45-.92-22.39-2.37C247.73-83.47,250-62.84,252.33-38.82Z" transform="translate(803.98 234.36)"/><path class="b" d="M177.52-59.07q10.83,3.76,22.17,7.2c-2.58-46.42-2.56-79.53-1.35-105.52q-8-1.57-15.48-3.26C179-135.43,176.64-103.52,177.52-59.07Z" transform="translate(803.98 234.36)"/><path class="b" d="M201.87-51.19c7.41,2.24,15,4.38,22.72,6.32-4-48.31-6.48-82.58-8.23-109.28-5.66-.91-11.15-1.9-16.47-2.93-0.95,26.06-.74,59.29,2,105.9h0Z" transform="translate(803.98 234.36)"/><path class="b" d="M244.77-105.61q10.81,1.47,22.18,2.44c-3.8-17.76-7.65-32.88-11.57-46.14q-9.35-.79-18.26-1.89C239.61-138.07,242.14-123.14,244.77-105.61Z" transform="translate(803.98 234.36)"/><path class="b" d="M153.87-67.52q10.5,3.94,21.53,7.73c0.11-67.47,6.4-105.95,14.33-136q-5.2-1.23-10-2.48C167.66-169,157.38-131.79,153.87-67.52Z" transform="translate(803.98 234.36)"/><path class="b" d="M217.77-157c5.52,0.92,11.21,1.77,17.05,2.52-2.48-12.81-4.83-23.87-7.1-34q-6.34-.94-12.33-2C216.08-180.48,216.85-169.58,217.77-157Z" transform="translate(803.98 234.36)"/><path class="b" d="M236.53-154.24q8.73,1.13,17.93,2c-4.25-12.94-8.42-24.11-12.52-34.31-4.43-.5-8.77-1.06-13-1.67C231.39-178.14,233.9-167.07,236.53-154.24Z" transform="translate(803.98 234.36)"/><path class="b" d="M93-186.53c3.41,0.55,6.9,1.22,10.73,2,21.5-19.38,42.65-34.89,62.95-49.46-1.93-.22-3.82-0.35-5.79-0.4C139.1-220.24,116.3-205.14,93-186.53Z" transform="translate(803.98 234.36)"/><path class="b" d="M104.76-184.28c3.32,0.73,6.64,1.51,9.92,2.33,19.49-20.2,38.75-36.14,57.3-51.19-1.51-.3-3.11-0.56-4.76-0.76C147.08-219.28,126.09-203.73,104.76-184.28Z" transform="translate(803.98 234.36)"/><path class="b" d="M68.49-101.08L86.5-94a251.63,251.63,0,0,1,14.63-43.71c-6.84-2.17-9.06-2.86-14.69-4.54A240.07,240.07,0,0,0,68.49-101.08Z" transform="translate(803.98 234.36)"/><path class="b" d="M115.71-181.69c3.37,0.87,6.87,1.81,10.76,2.87,7.89-10,15.84-18.95,23.77-27.25-2.71-.68-5.32-1.31-7.85-1.86C133.53-199.91,124.61-191.28,115.71-181.69Z" transform="translate(803.98 234.36)"/><path class="b" d="M104.47-141.16l15.14,4.86a300.48,300.48,0,0,1,39.55-67.43c-2.79-.75-5.49-1.47-8.15-2.15A312,312,0,0,0,104.47-141.16Z" transform="translate(803.98 234.36)"/><path class="b" d="M109.15-84.88c6.44,2.6,13.07,5.24,19.91,7.89,7.94-60.29,22.87-95.87,39.56-124.18L160-203.52C139.66-176,121-141.8,109.15-84.88Z" transform="translate(803.98 234.36)"/><path class="b" d="M587.55-115.24c13.56-6,27.06-12.23,40-18.35C601.42-141.91,575.24-149.22,549-156c-8.39,3.51-17.31,7.07-26.43,10.57A610.77,610.77,0,0,1,587.55-115.24Z" transform="translate(803.98 234.36)"/><path class="b" d="M581.05-170.09c31.9,3.84,64.48,7.58,97.83,11.66,12.56-6.24,24.59-12.41,35.7-18.28-38.79-.89-76.32-1.93-112.6-3.61C595.72-177.07,588.67-173.62,581.05-170.09Z" transform="translate(803.98 234.36)"/><path class="b" d="M622.2-191.54c41.47-.76,84.86-2.82,129.86-5.63,9.62-5.46,18.28-10.63,25.77-15.32-49.84,5.7-98,10.18-143.67,12.77A115.07,115.07,0,0,1,622.2-191.54Z" transform="translate(803.98 234.36)"/><path class="b" d="M635-200.45c46.13-2.75,94.7-7.45,145-13.42,7.47-4.73,13.88-9.09,19.06-13-54.71,8.58-107.76,15.41-157.93,19.69A25.58,25.58,0,0,1,635-200.45Z" transform="translate(803.98 234.36)"/><path class="b" d="M428.24-165.36c21.52,8.46,42.93,17.51,64.18,27.83,9.25-3.18,18.34-6.47,27-9.74-24.73-8.38-49.32-15.89-73.79-23.18C440.13-168.73,434.29-167,428.24-165.36Z" transform="translate(803.98 234.36)"/><path class="b" d="M463.84-176.84C492-171,520.75-165.39,550-159.46c8.3-3.46,16.21-6.93,23.48-10.26-33.16-3.83-65.5-7.78-97-12.47C472.81-180.46,468.53-178.65,463.84-176.84Z" transform="translate(803.98 234.36)"/><path class="b" d="M487.52-188.37c35.51,3.42,72.28,5.49,110.22,6.85,6.19-3.2,11.69-6.26,16.33-9.07-41.93.58-82.47-.07-121.39-2.58A20,20,0,0,1,487.52-188.37Z" transform="translate(803.98 234.36)"/><path class="b" d="M493-198.33c43,1.74,88,1,134.64-1.69,2.8-2.4,4.7-4.57,5.57-6.46-50.38,4.08-99.1,5.75-145.53,4.33C490.37-201,492.15-199.69,493-198.33Z" transform="translate(803.98 234.36)"/><path class="b" d="M355.42-190.77c22.64,8.06,45.57,15.76,68.81,23.92,5.91-1.57,11.61-3.21,16.91-4.87-26.19-7-51.94-14-77.27-21.59C361.44-192.43,358.58-191.58,355.42-190.77Z" transform="translate(803.98 234.36)"/><path class="b" d="M364.58-193.57c25.59,7.59,51.63,14.44,78.11,21.37,5.37-1.71,10.38-3.44,14.85-5.12-29.59-5.78-58.58-11.87-87-19.07A33.57,33.57,0,0,1,364.58-193.57Z" transform="translate(803.98 234.36)"/><path class="b" d="M371-196.68c28.68,7.17,58,13.19,87.86,18.86,4.55-1.74,8.66-3.48,12.17-5.15-33.13-4.55-65.52-9.88-97.14-16.78A7.56,7.56,0,0,1,371-196.68Z" transform="translate(803.98 234.36)"/><path class="b" d="M374-200.06c31.92,6.88,64.61,12.14,98.05,16.59a68.26,68.26,0,0,0,8.79-5c-36.77-3.43-72.68-8.14-107.67-14.89A3.52,3.52,0,0,1,374-200.06Z" transform="translate(803.98 234.36)"/><path class="b" d="M366.9-207.57A1038.46,1038.46,0,0,0,486.43-194a4.08,4.08,0,0,0-.17-4.22,1014.82,1014.82,0,0,1-129.79-13.2A88.57,88.57,0,0,1,366.9-207.57Z" transform="translate(803.98 234.36)"/><path class="b" d="M355.18-211.83A1013.91,1013.91,0,0,0,486-198.62c-1.07-1.33-3-2.59-5.85-3.77A1017.39,1017.39,0,0,1,338.6-216.2C345-214.66,350.6-213.2,355.18-211.83Z" transform="translate(803.98 234.36)"/><path class="b" d="M332.81-34.37c9-.67,18.25-1.76,27.46-3.17-3.18-24-8.13-44.55-14.44-62.33-8.21.82-16.65,1.44-25,1.8C326-79.89,330.1-58.91,332.81-34.37Z" transform="translate(803.98 234.36)"/><path class="b" d="M363-38c9.74-1.61,19.68-3.61,29.53-5.91-4.2-23-10.43-42.66-18.27-59.68-8.67,1.39-17.43,2.55-26,3.46C354.75-82.39,359.79-61.93,363-38Z" transform="translate(803.98 234.36)"/><path class="b" d="M395.54-44.59C406-47.1,416.72-50,427.49-53.28a215.9,215.9,0,0,0-23.76-55.82c-8.82,1.9-17.87,3.64-26.86,5.13C384.85-87,391.22-67.47,395.54-44.59Z" transform="translate(803.98 234.36)"/><path class="b" d="M430.71-54.25c11.45-3.48,23.09-7.34,34.52-11.39A207.53,207.53,0,0,0,434-116.4c-9.1,2.41-18.39,4.7-27.59,6.72A214.09,214.09,0,0,1,430.71-54.25Z" transform="translate(803.98 234.36)"/><path class="b" d="M468.69-66.86c12.25-4.34,24.71-9,37-13.87a236.7,236.7,0,0,0-41-44.55c-9.2,2.86-18.62,5.63-28,8.16A208.29,208.29,0,0,1,468.69-66.86Z" transform="translate(803.98 234.36)"/><path class="b" d="M509.38-82.19c12.77-5,25.88-10.41,38.9-15.94a343.84,343.84,0,0,0-52.8-37.34c-9.18,3.21-18.59,6.37-28,9.32A242.1,242.1,0,0,1,509.38-82.19Z" transform="translate(803.98 234.36)"/><path class="b" d="M319.53-101.89c8.32-.3,16.68-0.85,24.81-1.6a292.11,292.11,0,0,0-25.7-44.61c-6.67.31-13.43,0.49-20.08,0.51A329.42,329.42,0,0,1,319.53-101.89Z" transform="translate(803.98 234.36)"/><path class="b" d="M346.8-103.72c8.47-.83,17.14-1.9,25.72-3.21A280.13,280.13,0,0,0,341-149.64c-6.61.62-13.48,1.11-20.38,1.46A289.93,289.93,0,0,1,346.8-103.72Z" transform="translate(803.98 234.36)"/><path class="b" d="M375-107.32c8.9-1.39,17.84-3,26.54-4.84a298.54,298.54,0,0,0-38.13-40c-6.73.92-13.62,1.73-20.47,2.38A280.47,280.47,0,0,1,375-107.32Z" transform="translate(803.98 234.36)"/><path class="b" d="M434.08-119.78c9.27-2.44,18.56-5.06,27.6-7.81a511.21,511.21,0,0,0-54.35-32.57c-6.43,1.46-13,2.82-19.7,4.05A369.9,369.9,0,0,1,434.08-119.78Z" transform="translate(803.98 234.36)"/><path class="b" d="M275.74-150.84c6.67,0.31,13,.48,19.28.5a391.22,391.22,0,0,0-23.85-34c-4.56-.19-9.22-0.47-13.84-0.82C263.42-174.92,269.55-163.77,275.74-150.84Z" transform="translate(803.98 234.36)"/><path class="b" d="M296.92-150.33c6.54,0,13.19-.11,19.76-0.37A411.3,411.3,0,0,0,286.53-184c-4.53,0-9.25-.12-14-0.31A390.9,390.9,0,0,1,296.92-150.33Z" transform="translate(803.98 234.36)"/><path class="b" d="M318.61-150.78c6.78-.3,13.54-0.74,20.05-1.28a488,488,0,0,0-36.84-32.12c-4.6.15-9.29,0.23-13.93,0.23A415.59,415.59,0,0,1,318.61-150.78Z" transform="translate(803.98 234.36)"/><path class="b" d="M362.68-154.68c6.79-.9,13.49-1.94,19.89-3.06-17.31-10.37-34.54-19.63-51.68-28.66-4.11.5-8.45,0.94-12.88,1.29C332.86-175.71,347.76-165.86,362.68-154.68Z" transform="translate(803.98 234.36)"/><path class="b" d="M384.47-158.08c6.54-1.18,13-2.45,19.31-3.83-20.14-9.34-40.11-17.86-59.9-26.43-3.7.65-7.67,1.25-11.79,1.78C349.45-177.57,366.92-168.37,384.47-158.08Z" transform="translate(803.98 234.36)"/><path class="b" d="M-111.35-147c-22.92,12.14-45.11,25-66.06,38.79,10-3.13,19.55-6,28.47-8.61a818.58,818.58,0,0,1,71.34-41.65c-6,2-11.59,3.93-17.09,5.82S-105.77-148.81-111.35-147Z" transform="translate(803.98 234.36)"/></g><g class="a"><path class="b" d="M-623.21,210.8c7.22-2.53,14.45-5,21.58-7.3-4.72-36.36-2.12-69.56,6.15-100-10.4,4.21-21.16,8.68-32.07,13.29C-632.53,145.65-631.61,176.88-623.21,210.8Z" transform="translate(803.98 234.36)"/><path class="b" d="M-119.42,93.5c31.54-10.65,62.27-21.71,92.92-33.2C-6,14.28,6.79-24.46,13.59-57.08-7.15-50.74-29-44.37-52.87-37.88-67.73-1.6-89.14,41.67-119.42,93.5Z" transform="translate(803.98 234.36)"/><path class="b" d="M-719.84,92.44A166,166,0,0,0-728,164.08c7.6-4.8,15.34-9.56,23.09-14.18a193.45,193.45,0,0,1,18.81-74.48C-697.19,80.87-708.51,86.61-719.84,92.44Z" transform="translate(803.98 234.36)"/><path class="b" d="M-538.05,125.84c9.64-2.88,19.33-5.66,28.87-8.25A513.35,513.35,0,0,1-449.5,11C-461,14.78-472.84,18.73-485,22.95A439.75,439.75,0,0,0-538.05,125.84Z" transform="translate(803.98 234.36)"/><path class="b" d="M-444.12,101.79c9.21-2,18.62-4,28-5.87,23.73-44.7,48.59-83,74.08-116.17-10.36,2.7-20.84,5.51-31.24,8.4A714.77,714.77,0,0,0-444.12,101.79Z" transform="translate(803.98 234.36)"/><path class="b" d="M-413.41,95.39c9.11-1.82,18.45-3.62,27.84-5.4,25.41-45.92,51-84.92,76.57-118.53-9.81,2.38-19.89,4.9-30.07,7.54C-364.58,12.25-389.52,50.58-413.41,95.39Z" transform="translate(803.98 234.36)"/><path class="b" d="M-290.08,72.24q14.49-2.79,29.22-5.75C-232.48,18-207.7-22.19-185.48-56.06l-27.28,5.78C-236.24-16.26-261.76,23.94-290.08,72.24Z" transform="translate(803.98 234.36)"/><path class="b" d="M-804,133.88c0.53,16.16,4.33,32.95,11.9,50.43,9.38-4.63,18.56-9.59,27.52-14.6a143.38,143.38,0,0,1-1.41-56.8C-778.58,120-791.31,127.1-804,133.88Z" transform="translate(803.98 234.36)"/><path class="b" d="M-681.56,73.13c-15.37,33.84-21,71.07-13.32,112.48,9.24-4,18.52-8.08,27.7-12.1-1.43-45.16,10.32-85.16,31.37-121C-650.78,59.18-666.16,66.16-681.56,73.13Z" transform="translate(803.98 234.36)"/><path class="b" d="M-665.39,133.53c-0.8,26.8,4.43,55.5,17.11,86.37,7.39-2.73,15.14-5.56,22.89-8.32-8.77-33.66-10.07-64.67-5.44-93.38C-642.4,123.25-654,128.42-665.39,133.53Z" transform="translate(803.98 234.36)"/><path class="b" d="M-631.4,50.55a256.75,256.75,0,0,0-33,76.11c11.52-5.06,23.09-10.12,34.48-15a318.85,318.85,0,0,1,43.63-80.54C-601,37.39-616.15,43.91-631.4,50.55Z" transform="translate(803.98 234.36)"/><path class="b" d="M-582,29.34a385.27,385.27,0,0,0-24.82,35.72c13.35-5.54,26.66-11,39.67-16.13a463.32,463.32,0,0,1,28.86-37.37C-552.58,17.27-567.27,23.26-582,29.34Z" transform="translate(803.98 234.36)"/><path class="b" d="M-601.77,147.13c9.5-3.47,19.26-6.92,29.06-10.27,17.73-55.76,45.86-102.69,80.42-143C-505.88-1.06-519.94,4.36-534.12,9.9-565.49,49.19-589.41,94.33-601.77,147.13Z" transform="translate(803.98 234.36)"/><path class="b" d="M-569.91,135.94c9.76-3.24,19.5-6.34,29-9.26A483.55,483.55,0,0,1-448.71-22c-13,4.62-26.28,9.44-39.64,14.37C-523.18,32.79-551.69,79.9-569.91,135.94Z" transform="translate(803.98 234.36)"/><path class="b" d="M-475.09,108.88c9.34-2.24,18.82-4.43,28.25-6.49,35.12-66.38,73.76-118.84,114-161.76-10.64,3.13-21.5,6.38-32.41,9.75l-0.52.16c-40,42.57-77.27,94.06-109.29,158.35h0Zm-31.08,7.31c9.24-2,18.61-3.83,27.92-5.61C-446.63,46.26-409.5-5.32-369.55-48c-11,3.19-22.16,6.51-33.38,9.92l-0.53.16a835.52,835.52,0,0,0-59,70.15C-486.12,69.65-506.17,115.95-506.17,116.18Z" transform="translate(803.98 234.36)"/><path class="b" d="M-51.27-41.91q15.74-4.23,31.51-8.69c3.68-16.53,6.58-31.6,8.85-45.44q-12.87,3.37-26,6.62C-40.92-75-45.66-59.23-51.27-41.91Z" transform="translate(803.98 234.36)"/><path class="b" d="M-154.28,41.79q16.87-4.39,34.3-9.27c11.33-22,21.15-42.09,29.69-60.49q-15.53,4-30.93,7.7C-130.95-1.39-141.89,19.23-154.28,41.79Z" transform="translate(803.98 234.36)"/><path class="b" d="M-116.57,31.56q17.67-4.94,35.94-10.42C-70.89,0-62.67-19.38-55.75-37.1q-15.8,4.3-31.5,8.34C-95.66-10.41-105.35,9.62-116.57,31.56Z" transform="translate(803.98 234.36)"/><path class="b" d="M-224.79,58.79q15.46-3.42,31.37-7.22c26.81-47.88,48.61-87.26,66.93-120.24q-13.31,2.89-26.77,5.76C-173.54-29.44-196.94,10.44-224.79,58.79Z" transform="translate(803.98 234.36)"/><path class="b" d="M-190.31,50.85q16.14-3.91,32.78-8.2c25-47,44.5-85.54,60.26-117.79q-13.25,3-26.62,5.91C-142-36.31-163.63,3-190.31,50.85h0Z" transform="translate(803.98 234.36)"/><path class="b" d="M-85.38-33.05q15.47-3.89,31.09-8.06c5.78-17.38,10.69-33.19,14.88-47.67q-13.05,3.23-26.27,6.36C-71.45-67.44-78-51.06-85.38-33.05Z" transform="translate(803.98 234.36)"/><path class="b" d="M-258,65.87q14.92-3.07,30.18-6.4C-185.89-14.08-153.36-68-126.11-109.89q-11.65,2.48-23.69,5.08C-180-62.41-215-7.94-258,65.87Z" transform="translate(803.98 234.36)"/><path class="b" d="M-93-79.44q13.11-2.9,26.06-5.9c5.31-14.77,10.11-28.19,14.52-40.53q-10.68,2.39-21.71,4.8C-79.95-108.41-86.19-94.62-93-79.44Z" transform="translate(803.98 234.36)"/><path class="b" d="M-64.41-85.92q13-3,25.86-6.13c3.49-14.23,6.54-27.18,9.26-39.12q-10.35,2.42-21.05,4.83C-54.6-114-59.25-100.64-64.41-85.92Z" transform="translate(803.98 234.36)"/><path class="b" d="M-368.83-17.29c10.53-2.88,21.17-5.68,32.45-8.57a891.44,891.44,0,0,1,82.86-85c-10.62,3-20.87,6-31.2,9.07A857.89,857.89,0,0,0-368.83-17.29Z" transform="translate(803.98 234.36)"/><path class="b" d="M-333.43-26.6c9.84-2.5,19.4-4.85,28.52-7.05a922.33,922.33,0,0,1,80.57-85.28c-8.36,2.25-17.21,4.7-26.39,7.27A894.34,894.34,0,0,0-333.43-26.6Z" transform="translate(803.98 234.36)"/><path class="b" d="M-382.86,89.46L-355,84.31C-342.62,62-330.35,41.4-318.21,22.26c-13.25,2.8-17.79,3.78-29.32,6.38C-359.39,47.46-371.18,67.69-382.86,89.46Z" transform="translate(803.98 234.36)"/><path class="b" d="M-302-34.35c9.42-2.23,18.9-4.43,28.88-6.69,12.65-15.94,25-30.59,37.1-44.14-9.2,2.24-18.52,4.56-27.77,6.93C-276.39-64.74-289.12-50.16-302-34.35Z" transform="translate(803.98 234.36)"/><path class="b" d="M-311.57,15.81q14.58-3,29-5.94c26.88-40.22,51.93-73.59,75.66-102q-12.94,3-26.5,6.26C-258.4-57.38-284.33-24.08-311.57,15.81Z" transform="translate(803.98 234.36)"/><path class="b" d="M-321.43,78.15c9.47-1.76,19-3.53,28.55-5.37C-249.48-.77-212.37-55.53-179-98.41q-12.43,2.74-25.4,5.74C-239.95-49.53-278.38,5.24-321.43,78.15Z" transform="translate(803.98 234.36)"/><path class="b" d="M298.16-119.18c11.15-5,21.73-9.82,31.46-14.41q-40-5.88-74.82-13.21c-6.18,3.05-13.1,6.29-20.52,9.64C254.25-131,275.49-125,298.16-119.18Z" transform="translate(803.98 234.36)"/><path class="b" d="M276.48-158.45q41.14,5,88.72,7.34c8-4.15,15.23-8.09,21.47-11.71q-52.93.08-98.59-3.4A114.67,114.67,0,0,1,276.48-158.45Z" transform="translate(803.98 234.36)"/><path class="b" d="M296.06-174.31c33.73,1.4,70.32,1.19,109.52-.56a65,65,0,0,0,9.7-8.32c-42.18,2.92-81.63,4-117.91,3.11A7.59,7.59,0,0,1,296.06-174.31Z" transform="translate(803.98 234.36)"/><path class="b" d="M297.21-180.6c36.53,0.84,76.25-.3,118.71-3.32,2.06-2.46,3.11-4.64,3.15-6.52-45.16,3.9-87.49,5.59-126.33,5Q296.28-183.25,297.21-180.6Z" transform="translate(803.98 234.36)"/><path class="b" d="M158.08-150.91c15.77,7.49,32.54,14.87,50.42,22.25,8.22-3.43,15.94-6.78,23-9.94q-31.61-9.09-59.12-19.07C168.09-155.49,163.3-153.21,158.08-150.91Z" transform="translate(803.98 234.36)"/><path class="b" d="M185.51-165.31q32.13,8.8,69.34,15.6c5.9-3,11.17-5.85,15.68-8.51q-41.78-5.17-77.63-13.09A46.55,46.55,0,0,1,185.51-165.31Z" transform="translate(803.98 234.36)"/><path class="b" d="M196.89-178a818.71,818.71,0,0,0,87,10.72,29.78,29.78,0,0,0,6.3-6.64,813.71,813.71,0,0,1-94.46-9.39A7.42,7.42,0,0,1,196.89-178Z" transform="translate(803.98 234.36)"/><path class="b" d="M188.57-189.51c31.45,4.92,65.8,7.8,102.79,8.77-0.72-1.75-2.33-3.36-4.78-4.85-39.33-.78-75.87-3.79-109.27-9.16A84.13,84.13,0,0,1,188.57-189.51Z" transform="translate(803.98 234.36)"/><path class="b" d="M108.56-175.1c14.4,7.92,29.93,15.47,46.61,22.86,5.08-2.25,9.75-4.47,13.86-6.6a565.94,565.94,0,0,1-53.66-21.3A46.07,46.07,0,0,1,108.56-175.1Z" transform="translate(803.98 234.36)"/><path class="b" d="M115.9-180.63a563.47,563.47,0,0,0,54.34,21.17,119.05,119.05,0,0,0,10.66-6.26,548.78,548.78,0,0,1-61.26-20A16.5,16.5,0,0,1,115.9-180.63Z" transform="translate(803.98 234.36)"/><path class="b" d="M119.84-186.18a547.86,547.86,0,0,0,61.92,19.86,42.31,42.31,0,0,0,7.05-5.9,544,544,0,0,1-68.69-19.13A8.4,8.4,0,0,1,119.84-186.18Z" transform="translate(803.98 234.36)"/><path class="b" d="M120-191.85a543.83,543.83,0,0,0,69.33,19.09,12.41,12.41,0,0,0,3-5.55,544.13,544.13,0,0,1-75.88-18.94A14.93,14.93,0,0,1,120-191.85Z" transform="translate(803.98 234.36)"/><path class="b" d="M107.15-204.22c25.48,8.32,53.33,14.79,83.43,19.6a23.4,23.4,0,0,0-6.3-5.18q-48.44-7.44-89.52-20.94C99.54-208.46,103.71-206.29,107.15-204.22Z" transform="translate(803.98 234.36)"/><path class="b" d="M93.33-211.42q41.27,13.72,90.11,21.12a92.11,92.11,0,0,0-11.58-5.32c-34.62-5.45-66.7-13.18-96-23.37C82.34-216.3,88.23-213.77,93.33-211.42Z" transform="translate(803.98 234.36)"/><path class="b" d="M4.94-6c13.49-4.5,27-9.13,40.12-13.72a436.93,436.93,0,0,0,3.31-48.2C38-64.63,27.16-61.21,16.08-57.84,13.53-42,9.87-24.81,4.94-6Z" transform="translate(803.98 234.36)"/><path class="b" d="M49-21.13C62.95-26,76.7-30.93,89.92-35.76a388.36,388.36,0,0,0-6.4-43.75C73.11-76,62.33-72.43,51.5-69A429.3,429.3,0,0,1,49-21.13Z" transform="translate(803.98 234.36)"/><path class="b" d="M93.91-37.21c13.94-5.07,27.78-10.23,41.13-15.31-5.39-13.87-11.08-26.8-17.1-38.88-10,3.55-20.52,7.2-31.33,10.87A388.49,388.49,0,0,1,93.91-37.21Z" transform="translate(803.98 234.36)"/><path class="b" d="M139-54c14.05-5.32,27.72-10.62,40.65-15.73q-14.46-17.83-28.59-33.7c-9.62,3.59-19.76,7.3-30.15,11Q130.42-74.53,139-54Z" transform="translate(803.98 234.36)"/><path class="b" d="M183.56-71.28C197.19-76.64,210.45-82,223-87.13l-40.63-28.31c-9,3.55-18.53,7.23-28.43,10.93Q168.58-88.8,183.56-71.28Z" transform="translate(803.98 234.36)"/><path class="b" d="M226.73-88.66c12.8-5.24,25.36-10.51,37.3-15.62-18.63-7.69-36.21-15.29-52.9-22.85-8.22,3.45-17,7-26.12,10.63C198.38-107.55,212.23-98.29,226.73-88.66Z" transform="translate(803.98 234.36)"/><path class="b" d="M16.47-61.18c10.91-3.27,21.6-6.57,31.78-9.79-1.3-14.45-3-27.72-5.11-40-8,2.36-16.43,4.75-24.91,7.09C18.19-90.84,17.64-76.67,16.47-61.18Z" transform="translate(803.98 234.36)"/><path class="b" d="M51.33-71.95C62-75.33,72.58-78.76,82.82-82.18c-4.26-13.19-8.7-25.39-13.28-36.77-7.58,2.37-15.65,4.82-24,7.28C47.82-99.46,49.78-86.29,51.33-71.95Z" transform="translate(803.98 234.36)"/><path class="b" d="M85.84-83.19c10.62-3.54,21-7.09,30.78-10.54-7.45-11.82-14.78-22.86-22-33.28-7.28,2.42-14.95,4.9-22.8,7.36C76.62-108.36,81.31-96.27,85.84-83.19Z" transform="translate(803.98 234.36)"/><path class="b" d="M152-106.46c9.7-3.6,19.07-7.17,27.89-10.63-14.29-8.9-27.82-17.5-40.67-26q-9.09,3.59-19.25,7.25C130.18-126.44,140.84-116.72,152-106.46Z" transform="translate(803.98 234.36)"/><path class="b" d="M-9.39-99.34c8.95-2.3,17.18-4.47,25.12-6.63-0.64-12.88-1.47-24.69-2.41-35.7C7.13-140,.6-138.39-6.13-136.73-7-125.26-8-112.89-9.39-99.34Z" transform="translate(803.98 234.36)"/><path class="b" d="M18.14-106.63c8.33-2.27,16.56-4.58,24.47-6.86-3-12.07-6.06-23.21-9.06-33.68-5.76,1.63-11.94,3.31-18.39,5C16.28-131.2,17.3-119.44,18.14-106.63Z" transform="translate(803.98 234.36)"/><path class="b" d="M45-114.17c8.21-2.38,16.12-4.75,23.57-7C63-132.38,57.59-142.8,52.43-152.72,47-151,41.19-149.33,35.28-147.66,38.47-137.23,41.72-126.16,45-114.17Z" transform="translate(803.98 234.36)"/><path class="b" d="M95.2-129.72c7.32-2.42,14.31-4.82,20.78-7.14-11-9.28-21.31-18.21-31-27-4.27,1.68-8.94,3.39-13.87,5.09C78.71-149.49,86.74-139.88,95.2-129.72Z" transform="translate(803.98 234.36)"/><path class="b" d="M117.91-137.54c6.6-2.38,12.9-4.73,18.82-7-13.8-8.33-26.7-16.54-38.72-24.88-3.55,1.67-7.51,3.38-11.78,5.08C96.12-155.61,106.68-146.74,117.91-137.54Z" transform="translate(803.98 234.36)"/><path class="b" d="M-765.45,140.22c1.72,18.81,7.53,38.5,18.11,59.14,7.8-3.84,15.55-7.87,23.21-11.89-7.58-23.37-9.93-45.46-7.88-66.39-6.36,3.65-11.91,7-17.28,10.13S-759.84,137.42-765.45,140.22Z" transform="translate(803.98 234.36)"/></g></svg>