<svg id="Layer_1" data-name="Layer 1" xmlns="http://www.w3.org/2000/svg" viewBox="0 0 237.28 120.1"><defs><style>.cls-1{fill:none;}.cls-2,.cls-3{fill:#102b72;}.cls-2{stroke:#102b72;stroke-width:0.31px;}.cls-4{fill:#987c4d;}</style></defs><title>SMU_logo</title><rect class="cls-1" width="237.28" height="120.1"/><path class="cls-2" d="M371.91,242.91c-0.55-.26-0.59-0.41-0.59-1.43,0-1.89.16-3.39,0.2-4,0-.42.12-0.6,0.32-0.6s0.27,0.12.27,0.42a6.14,6.14,0,0,0,.12,1.39c0.59,2.79,3.21,3.85,5.86,3.85,3.8,0,5.66-2.6,5.66-5,0-2.6-1.15-4.11-4.55-6.79l-1.79-1.4c-4.2-3.28-5.14-5.62-5.14-8.18,0-4,3.17-6.79,8.2-6.79a16.21,16.21,0,0,1,3.68.37,6.72,6.72,0,0,0,1.39.19c0.31,0,.39.08,0.39,0.26s-0.16,1.44-.16,4c0,0.6-.08.87-0.27,0.87s-0.28-.19-0.32-0.49a6.39,6.39,0,0,0-.51-1.89c-0.24-.41-1.3-2-5-2-2.73,0-4.87,1.62-4.87,4.37,0,2.15,1.11,3.43,4.83,6.33l1.11,0.84c4.68,3.5,5.78,5.84,5.78,8.86a7.68,7.68,0,0,1-3.37,6.26,10.8,10.8,0,0,1-6,1.58A12.54,12.54,0,0,1,371.91,242.91Z" transform="translate(-297.71 -181.54)"/><path class="cls-2" d="M424,238.93c0.16,1.36.43,3.47,2.14,4a9,9,0,0,0,2.58.34c0.2,0,.31,0,0.31.18s-0.36.34-.83,0.34c-0.87,0-5.15-.11-6.61-0.23-0.91-.07-1.1-0.18-1.1-0.37a0.26,0.26,0,0,1,.28-0.26,1.64,1.64,0,0,0,.16-1.36L419,222.12h-0.11l-9.7,19.61c-0.83,1.66-1,2-1.31,2s-0.47-.38-1.23-1.74c-1-1.85-4.43-8.37-4.63-8.75-0.36-.68-4.8-9.73-5.23-10.75H396.6L395,240c0,0.6,0,1.28,0,1.92a1.22,1.22,0,0,0,1,1.17,7.69,7.69,0,0,0,1.5.19,0.29,0.29,0,0,1,.32.18c0,0.27-.24.34-0.72,0.34-1.46,0-3.36-.11-3.68-0.11s-2.25.11-3.32,0.11c-0.4,0-.68-0.08-0.68-0.34a0.37,0.37,0,0,1,.4-0.18,5.25,5.25,0,0,0,1.18-.11c1.31-.23,1.43-1.7,1.59-3.13l2.85-24.59c0.08-.41.2-0.68,0.43-0.68a0.71,0.71,0,0,1,.6.56L408.6,239l11.64-23.68a0.79,0.79,0,0,1,.6-0.6c0.28,0,.4.3,0.47,1Z" transform="translate(-297.71 -181.54)"/><path class="cls-2" d="M431,225.82c0-5.88,0-6.94-.08-8.15s-0.39-1.88-1.7-2.15a7.57,7.57,0,0,0-1.35-.11,0.27,0.27,0,0,1-.32-0.23c0-.22.2-0.3,0.63-0.3,1.78,0,4.2.11,4.55,0.11s2.73-.11,3.92-0.11c0.43,0,.63.07,0.63,0.3a0.27,0.27,0,0,1-.32.23,5.87,5.87,0,0,0-1,.11c-1.07.15-1.38,0.83-1.46,2.15s-0.08,2.26-.08,8.15v5.28c0,5.43,1.27,7.77,3,9.32a8,8,0,0,0,6,2.08,8.49,8.49,0,0,0,6.22-2.72c1.82-2.15,2.3-5.36,2.3-9.24v-4.71c0-5.88,0-6.94-.08-8.15s-0.4-1.88-1.7-2.15a7.48,7.48,0,0,0-1.34-.11,0.27,0.27,0,0,1-.32-0.23c0-.22.2-0.3,0.63-0.3,1.78,0,4,.11,4.2.11s2.14-.11,3.33-0.11c0.43,0,.63.07,0.63,0.3a0.27,0.27,0,0,1-.31.23,3.62,3.62,0,0,0-1,.11c-1.07.19-1.38,0.83-1.46,2.15s-0.08,2.26-.08,8.15v4c0,4.08-.48,8.6-3.64,11.28a12,12,0,0,1-8.16,2.79c-1.34,0-5.34-.15-8.15-2.68-1.94-1.77-3.45-4.41-3.45-9.91v-5.51Z" transform="translate(-297.71 -181.54)"/><polygon class="cls-3" points="52.17 62.29 44.24 55.04 44.24 55.03 44.24 55.04 44.23 55.03 44.23 55.04 36.3 62.29 44.23 59.74 44.24 59.74 52.17 62.29"/><polygon class="cls-3" points="44.24 55.02 46.85 47.85 52.69 47.15 44.24 55.02"/><polygon class="cls-3" points="58.58 49.49 52.69 47.15 52.52 37.5 58.58 49.49"/><polygon class="cls-3" points="53.96 33.16 59.85 33.16 52.52 37.51 53.96 33.16"/><polygon class="cls-4" points="44.23 55.02 41.62 47.85 35.79 47.15 44.23 55.02"/><polygon class="cls-4" points="29.89 49.49 35.79 47.15 35.95 37.5 29.89 49.49"/><polygon class="cls-4" points="34.51 33.16 28.62 33.16 35.95 37.51 34.51 33.16"/><path class="cls-4" d="M362.15,200.28c-5.26,5-8.87,2.78-10.73,2.38a9.64,9.64,0,0,0-3.54-.63c-3.21,0-5.82,1.37-5.82,3.06a2.17,2.17,0,0,0,.93,1.65,5.93,5.93,0,0,1,2.64-1.27h0a13,13,0,0,1,5.34.23l0.66,0.18h0a6.69,6.69,0,0,0,.74.19l0.28,0.06c6,1.32,9.52-1.67,9.52-1.67Z" transform="translate(-297.71 -181.54)"/><path class="cls-3" d="M341.42,252.3a15,15,0,0,1-4.94-.8c-2.94-1.42-3.5-5.78-3.87-9.38,0-.4-2.78-1.26-4.08-2.45-2.12-1.94-1.79-8-1.79-8.36s-3.43-2.07-3.43-5.81c0-1.58,0-10.42,0-10.42-2.23-2.77-3.66-2.81-5.44-2.25-2.21.71-2.85,2.34-5.16,2.67,0,0.51,0,26.85,0,26.85,0,8.12,1.49,13.72,9.81,20,7.71,5.78,13.68,5.64,18.89,15.11C341.5,277.58,341.45,252.3,341.42,252.3Z" transform="translate(-297.71 -181.54)"/><path class="cls-3" d="M371.49,259a0.25,0.25,0,0,1-.17-0.31c0-.5,0-1,0-1.18s0-.23.11-0.23,0.09,0.08.09,0.15a2,2,0,0,0,.08.46,1.26,1.26,0,0,0,1.31.91,1.11,1.11,0,0,0,1.23-1,1.7,1.7,0,0,0-.9-1.44l-0.42-.32a2.67,2.67,0,0,1-1.35-2.13,1.85,1.85,0,0,1,2.11-1.7,4.47,4.47,0,0,1,1.22.15c0.08,0,.13,0,0.13.11s0,0.38,0,1.08c0,0.2,0,.27-0.1.27s-0.09-.06-0.09-0.16a1.1,1.1,0,0,0-.24-0.59,1.17,1.17,0,0,0-1-.44,1,1,0,0,0-1.09.93,1.69,1.69,0,0,0,1,1.29l0.25,0.19c1.1,0.84,1.5,1.44,1.5,2.29a1.8,1.8,0,0,1-.86,1.56,2.68,2.68,0,0,1-1.45.37A3.23,3.23,0,0,1,371.49,259Z" transform="translate(-297.71 -181.54)"/><path class="cls-3" d="M377.36,254.9c0-1.37,0-1.62,0-1.91a0.45,0.45,0,0,0-.31-0.5,1.31,1.31,0,0,0-.33,0c-0.09,0-.15,0-0.15-0.09s0.07-.07.22-0.07l1.19,0,1.12,0c0.12,0,.19,0,0.19.07s-0.05.09-.14,0.09l-0.27,0a0.44,0.44,0,0,0-.34.51c0,0.29,0,.54,0,1.91v1.58c0,0.87,0,1.58,0,2a0.4,0.4,0,0,0,.37.44,3.76,3.76,0,0,0,.46,0c0.1,0,.15,0,0.15.07s-0.07.09-.18,0.09c-0.6,0-1.18,0-1.43,0l-1.15,0c-0.12,0-.18,0-0.18-0.09s0-.07.14-0.07a1.48,1.48,0,0,0,.33,0,0.4,0.4,0,0,0,.26-0.45c0-.37,0-1.09,0-2V254.9Z" transform="translate(-297.71 -181.54)"/><path class="cls-3" d="M382,257.87c0,0.7.14,0.94,0.32,1a1.39,1.39,0,0,0,.47.07c0.1,0,.16,0,0.16.07s-0.08.09-.21,0.09c-0.59,0-1,0-1.14,0s-0.51,0-1,0c-0.12,0-.2,0-0.2-0.09s0.06-.07.14-0.07a1.61,1.61,0,0,0,.41,0c0.24-.07.27-0.33,0.28-1.12l0.08-5.32c0-.18,0-0.31.12-0.31a0.68,0.68,0,0,1,.34.28c0.11,0.12,1.5,1.58,2.84,2.89,0.62,0.61,1.86,1.91,2,2.05h0l-0.09-4c0-.55-0.09-0.72-0.31-0.81a1.5,1.5,0,0,0-.48-0.05c-0.11,0-.15,0-0.15-0.08s0.1-.08.24-0.08c0.48,0,.91,0,1.11,0s0.45,0,.9,0c0.12,0,.21,0,0.21.08s-0.06.08-.17,0.08a1.05,1.05,0,0,0-.27,0c-0.25.07-.33,0.26-0.34,0.77l-0.1,5.68c0,0.2,0,.28-0.12.28a0.56,0.56,0,0,1-.31-0.2c-0.57-.54-1.75-1.72-2.7-2.64s-2-2.1-2.18-2.27h0Z" transform="translate(-297.71 -181.54)"/><path class="cls-3" d="M395.75,258.5c0,0.24,0,.26-0.12.32a5.26,5.26,0,0,1-2.2.41c-2.24,0-4.23-1-4.23-3.53a3.35,3.35,0,0,1,1.59-2.94,4.5,4.5,0,0,1,2.46-.58,11.17,11.17,0,0,1,1.62.14,6.08,6.08,0,0,0,.72.1c0.11,0,.13,0,0.13.11a12.05,12.05,0,0,0-.06,1.47c0,0.14,0,.19-0.1.19s-0.08,0-.09-0.12a1.24,1.24,0,0,0-.31-0.75,3,3,0,0,0-2-.7,2.43,2.43,0,0,0-2.66,2.76,3.14,3.14,0,0,0,3.18,3.38,2.07,2.07,0,0,0,.78-0.1,0.32,0.32,0,0,0,.17-0.33v-0.84c0-.45,0-0.79,0-1.06a0.44,0.44,0,0,0-.39-0.51,2.11,2.11,0,0,0-.36,0c-0.08,0-.14,0-0.14-0.07s0.06-.09.19-0.09l1.33,0,1.07,0c0.12,0,.19,0,0.19.09s-0.06.07-.12,0.07l-0.25,0a0.43,0.43,0,0,0-.35.51c0,0.27,0,.63,0,1.08v1Z" transform="translate(-297.71 -181.54)"/><path class="cls-3" d="M398.71,256.75a0.08,0.08,0,0,0-.08.07l-0.5,1.29a1.7,1.7,0,0,0-.14.55c0,0.16.08,0.28,0.37,0.28h0.14c0.11,0,.14,0,0.14.07s-0.05.09-.16,0.09l-1,0c-0.1,0-.6,0-1.08,0-0.12,0-.18,0-0.18-0.09s0-.07.11-0.07l0.28,0a1,1,0,0,0,.78-0.81l2.29-5.65a0.45,0.45,0,0,1,.26-0.36,0.36,0.36,0,0,1,.23.29c0.22,0.49,1.68,4.16,2.27,5.53a1.32,1.32,0,0,0,.8,1,1.94,1.94,0,0,0,.38,0c0.07,0,.12,0,0.12.07s-0.08.09-.42,0.09-1,0-1.73,0c-0.17,0-.28,0-0.28-0.07s0-.07.13-0.08a0.15,0.15,0,0,0,.08-0.21l-0.73-1.91a0.09,0.09,0,0,0-.09-0.06h-2Zm1.87-.45a0,0,0,0,0,0-.05L399.8,254a0.09,0.09,0,0,0,0-.08,0.09,0.09,0,0,0-.05.08l-0.84,2.21s0,0.06,0,.06h1.68Z" transform="translate(-297.71 -181.54)"/><path class="cls-3" d="M404.8,254.9c0-1.37,0-1.62,0-1.91a0.45,0.45,0,0,0-.39-0.51,2,2,0,0,0-.36,0c-0.1,0-.16,0-0.16-0.08s0.06-.08.2-0.08l1.32,0,1.33,0a2.26,2.26,0,0,1,1.7.51,1.56,1.56,0,0,1,.46,1.07,2.14,2.14,0,0,1-2.25,2.18h-0.19a0.1,0.1,0,0,1-.11-0.08c0-.07.06-0.1,0.26-0.1a1.43,1.43,0,0,0,1.23-1.48,1.73,1.73,0,0,0-.54-1.35,1.38,1.38,0,0,0-.92-0.35,1.3,1.3,0,0,0-.36,0,0.16,0.16,0,0,0-.07.17v3.6c0,0.83,0,1.54,0,1.93a0.43,0.43,0,0,0,.36.49,3.79,3.79,0,0,0,.47,0c0.1,0,.15,0,0.15.07s-0.07.09-.17,0.09c-0.6,0-1.18,0-1.42,0l-1.15,0c-0.12,0-.18,0-0.18-0.09s0-.07.15-0.07a1.49,1.49,0,0,0,.33,0,0.48,0.48,0,0,0,.26-0.5c0-.38,0-1.09,0-1.92V254.9Z" transform="translate(-297.71 -181.54)"/><path class="cls-3" d="M409.84,255.7a3.49,3.49,0,0,1,3.78-3.53c2.28,0,3.69,1.3,3.69,3.36a3.59,3.59,0,0,1-3.79,3.69A3.46,3.46,0,0,1,409.84,255.7Zm6.19,0.17c0-2-1.18-3.27-2.68-3.27-1.05,0-2.25.58-2.25,2.81,0,1.87,1.05,3.36,2.81,3.36C414.55,258.77,416,258.47,416,255.87Z" transform="translate(-297.71 -181.54)"/><path class="cls-3" d="M419.27,254.9c0-1.37,0-1.62,0-1.91a0.45,0.45,0,0,0-.4-0.51,1.91,1.91,0,0,0-.36,0c-0.1,0-.16,0-0.16-0.08s0.06-.08.2-0.08c0.48,0,1.06,0,1.25,0l1.29,0a2.94,2.94,0,0,1,1.68.39,1.54,1.54,0,0,1,.62,1.23,2.51,2.51,0,0,1-1.21,2c0.81,1,1.45,1.81,2,2.37a1.84,1.84,0,0,0,1,.61l0.26,0c0.07,0,.11,0,0.11.07s-0.06.09-.18,0.09h-0.87a1.89,1.89,0,0,1-1-.17,4.37,4.37,0,0,1-1.25-1.32c-0.37-.5-0.79-1.11-0.9-1.24a0.19,0.19,0,0,0-.17-0.06l-0.8,0a0.06,0.06,0,0,0-.07.07v0.13c0,0.84,0,1.55,0,1.92a0.44,0.44,0,0,0,.36.5l0.45,0c0.07,0,.11,0,0.11.07s-0.06.09-.19,0.09l-1.34,0-1.11,0c-0.12,0-.18,0-0.18-0.09s0-.07.15-0.07a1.46,1.46,0,0,0,.33,0,0.48,0.48,0,0,0,.27-0.5c0-.38,0-1.09,0-1.92V254.9Zm1.08,0.71a0.14,0.14,0,0,0,.08.16,2.5,2.5,0,0,0,.69.09,0.92,0.92,0,0,0,.65-0.15,1.57,1.57,0,0,0,.54-1.35,1.45,1.45,0,0,0-1.4-1.65,2.15,2.15,0,0,0-.49,0,0.11,0.11,0,0,0-.08.13v2.74Z" transform="translate(-297.71 -181.54)"/><path class="cls-3" d="M426.22,254.9c0-1.37,0-1.62,0-1.91a0.45,0.45,0,0,0-.39-0.51,2,2,0,0,0-.36,0c-0.1,0-.16,0-0.16-0.08s0.06-.08.2-0.08h0.74l0.58,0h2.29l0.39-.05a1,1,0,0,1,.14,0s0.06,0,.06.08a5.87,5.87,0,0,0-.07.58c0,0.09,0,.49,0,0.59a0.1,0.1,0,0,1-.09.1c-0.06,0-.08,0-0.08-0.13a0.89,0.89,0,0,0-.06-0.32,0.57,0.57,0,0,0-.61-0.32c-0.16,0-1.12,0-1.3,0s-0.06,0-.06.09v2.28c0,0.06,0,.1.06,0.1,0.2,0,1.25,0,1.47,0a0.64,0.64,0,0,0,.44-0.14,0.26,0.26,0,0,1,.15-0.12,0.06,0.06,0,0,1,.07.07,6.18,6.18,0,0,0-.08.66c0,0.18,0,.54,0,0.6s0,0.17-.08.17a0.07,0.07,0,0,1-.08-0.08,2.07,2.07,0,0,0,0-.32,0.49,0.49,0,0,0-.51-0.35c-0.17,0-1.08,0-1.3,0,0,0-.06,0-0.06.09v0.71c0,0.31,0,1.13,0,1.4,0,0.62.17,0.75,1.1,0.75a2.37,2.37,0,0,0,.86-0.11,0.76,0.76,0,0,0,.41-0.67c0-.1,0-0.13.1-0.13s0.07,0.07.07,0.16a6.63,6.63,0,0,1-.12,1c-0.06.23-.14,0.23-0.49,0.23-0.69,0-1.19,0-1.58,0l-1,0h-0.52l-0.63,0c-0.12,0-.18,0-0.18-0.09s0-.07.14-0.07a1.49,1.49,0,0,0,.33,0,0.48,0.48,0,0,0,.26-0.5c0-.38,0-1.09,0-1.92V254.9Z" transform="translate(-297.71 -181.54)"/><path class="cls-3" d="M435.17,252.33a0.22,0.22,0,0,1,.16-0.23c0.07,0,.13,0,0.25.28l2.5,5.07,2.49-5.14a0.27,0.27,0,0,1,.2-0.22c0.08,0,.14.09,0.17,0.28l0.83,5.56a0.91,0.91,0,0,0,.45.91,1.82,1.82,0,0,0,.57.09c0.08,0,.14,0,0.14.06s-0.11.1-.24,0.1-1.49,0-1.86-.05c-0.21,0-.27,0-0.27-0.1a0.12,0.12,0,0,1,.1-0.1,0.37,0.37,0,0,0,0-.39l-0.55-4h0l-2,4.08a0.74,0.74,0,0,1-.34.5,0.86,0.86,0,0,1-.32-0.45c-0.22-.41-0.94-1.79-1.05-2s-0.63-1.32-1-2h0L435,258.18a3.66,3.66,0,0,0,0,.42,0.29,0.29,0,0,0,.27.29,1.76,1.76,0,0,0,.39,0c0.07,0,.14,0,0.14.06s-0.08.1-.22,0.1c-0.38,0-.79,0-1,0l-0.91,0c-0.09,0-.16,0-0.16-0.1s0.05-.06.14-0.06a1.17,1.17,0,0,0,.27,0,0.76,0.76,0,0,0,.38-0.71Z" transform="translate(-297.71 -181.54)"/><path class="cls-3" d="M444.88,256.75a0.08,0.08,0,0,0-.08.07l-0.49,1.29a1.63,1.63,0,0,0-.14.55c0,0.16.08,0.28,0.37,0.28h0.13c0.11,0,.14,0,0.14.07s-0.06.09-.16,0.09l-1,0c-0.1,0-.6,0-1.08,0-0.12,0-.18,0-0.18-0.09s0-.07.11-0.07l0.28,0a1,1,0,0,0,.78-0.81l2.29-5.65a0.44,0.44,0,0,1,.26-0.36,0.35,0.35,0,0,1,.23.29c0.22,0.49,1.68,4.16,2.27,5.53a1.33,1.33,0,0,0,.81,1,1.94,1.94,0,0,0,.38,0c0.07,0,.12,0,0.12.07s-0.08.09-.42,0.09-1,0-1.73,0c-0.16,0-.28,0-0.28-0.07s0-.07.13-0.08a0.15,0.15,0,0,0,.08-0.21L447,256.81a0.09,0.09,0,0,0-.09-0.06h-2Zm1.87-.45a0,0,0,0,0,0-.05L446,254a0.09,0.09,0,0,0,0-.08,0.1,0.1,0,0,0-.06.08L445,256.24s0,0.06,0,.06h1.68Z" transform="translate(-297.71 -181.54)"/><path class="cls-3" d="M451.47,257.87c0,0.7.14,0.94,0.32,1a1.39,1.39,0,0,0,.47.07c0.1,0,.15,0,0.15.07s-0.08.09-.21,0.09c-0.59,0-1,0-1.13,0s-0.51,0-1,0c-0.12,0-.2,0-0.2-0.09s0.05-.07.14-0.07a1.59,1.59,0,0,0,.41,0c0.24-.07.28-0.33,0.28-1.12l0.08-5.32c0-.18,0-0.31.12-0.31a0.69,0.69,0,0,1,.34.28c0.11,0.12,1.5,1.58,2.83,2.89,0.62,0.61,1.86,1.91,2,2.05h0l-0.09-4c0-.55-0.09-0.72-0.31-0.81a1.49,1.49,0,0,0-.48-0.05c-0.11,0-.15,0-0.15-0.08s0.1-.08.24-0.08c0.47,0,.91,0,1.1,0s0.45,0,.9,0c0.12,0,.21,0,0.21.08s-0.05.08-.17,0.08a1,1,0,0,0-.27,0c-0.25.07-.33,0.26-0.34,0.77l-0.1,5.68c0,0.2,0,.28-0.12.28a0.54,0.54,0,0,1-.31-0.2c-0.58-.54-1.75-1.72-2.7-2.64s-2-2.1-2.18-2.27h0Z" transform="translate(-297.71 -181.54)"/><path class="cls-3" d="M460,256.75a0.08,0.08,0,0,0-.08.07l-0.49,1.29a1.65,1.65,0,0,0-.14.55c0,0.16.08,0.28,0.36,0.28h0.14c0.11,0,.14,0,0.14.07s-0.06.09-.16,0.09l-1,0c-0.1,0-.6,0-1.08,0-0.12,0-.17,0-0.17-0.09s0-.07.11-0.07l0.29,0a1,1,0,0,0,.78-0.81l2.3-5.65a0.44,0.44,0,0,1,.26-0.36,0.36,0.36,0,0,1,.23.29c0.22,0.49,1.68,4.16,2.27,5.53a1.32,1.32,0,0,0,.81,1,1.93,1.93,0,0,0,.38,0c0.07,0,.12,0,0.12.07s-0.08.09-.42,0.09-1,0-1.73,0c-0.16,0-.27,0-0.27-0.07s0-.07.13-0.08a0.15,0.15,0,0,0,.08-0.21l-0.73-1.91a0.09,0.09,0,0,0-.09-0.06h-2Zm1.87-.45a0,0,0,0,0,0-.05L461.12,254a0.09,0.09,0,0,0,0-.08,0.09,0.09,0,0,0-.05.08l-0.84,2.21s0,0.06,0,.06h1.68Z" transform="translate(-297.71 -181.54)"/><path class="cls-3" d="M471.66,258.5c0,0.24,0,.26-0.12.32a5.27,5.27,0,0,1-2.21.41c-2.24,0-4.23-1-4.23-3.53a3.35,3.35,0,0,1,1.59-2.94,4.51,4.51,0,0,1,2.46-.58,11.22,11.22,0,0,1,1.62.14,6.05,6.05,0,0,0,.72.1c0.11,0,.13,0,0.13.11a12,12,0,0,0-.06,1.47c0,0.14,0,.19-0.1.19s-0.08,0-.09-0.12a1.26,1.26,0,0,0-.31-0.75,3,3,0,0,0-2-.7,2.43,2.43,0,0,0-2.65,2.76,3.14,3.14,0,0,0,3.18,3.38,2.08,2.08,0,0,0,.78-0.1,0.32,0.32,0,0,0,.17-0.33v-0.84c0-.45,0-0.79,0-1.06a0.44,0.44,0,0,0-.4-0.51,2,2,0,0,0-.36,0c-0.08,0-.14,0-0.14-0.07s0.06-.09.19-0.09l1.33,0,1.07,0c0.12,0,.18,0,0.18.09s-0.06.07-.12,0.07l-0.25,0a0.43,0.43,0,0,0-.35.51c0,0.27,0,.63,0,1.08v1Z" transform="translate(-297.71 -181.54)"/><path class="cls-3" d="M474.26,254.9c0-1.37,0-1.62,0-1.91a0.44,0.44,0,0,0-.39-0.51,2,2,0,0,0-.36,0c-0.1,0-.15,0-0.15-0.08s0.06-.08.2-0.08h0.74l0.58,0h2.29l0.39-.05a1,1,0,0,1,.14,0s0.06,0,.06.08a4.76,4.76,0,0,0-.07.58c0,0.09,0,.49,0,0.59a0.1,0.1,0,0,1-.09.1c-0.06,0-.08,0-0.08-0.13a1,1,0,0,0-.06-0.32,0.57,0.57,0,0,0-.61-0.32c-0.15,0-1.12,0-1.3,0s-0.06,0-.06.09v2.28c0,0.06,0,.1.06,0.1s1.25,0,1.46,0a0.65,0.65,0,0,0,.44-0.14,0.25,0.25,0,0,1,.14-0.12,0.06,0.06,0,0,1,.06.07,6.19,6.19,0,0,0-.07.66c0,0.18,0,.54,0,0.6s0,0.17-.08.17a0.07,0.07,0,0,1-.08-0.08,2.36,2.36,0,0,0,0-.32,0.49,0.49,0,0,0-.51-0.35c-0.17,0-1.08,0-1.3,0,0,0-.05,0-0.05.09v0.71c0,0.31,0,1.13,0,1.4,0,0.62.17,0.75,1.1,0.75a2.39,2.39,0,0,0,.86-0.11,0.76,0.76,0,0,0,.41-0.67c0-.1,0-0.13.1-0.13s0.07,0.07.07,0.16a6.51,6.51,0,0,1-.12,1c-0.06.23-.15,0.23-0.49,0.23-0.69,0-1.19,0-1.58,0l-0.95,0h-0.53l-0.63,0c-0.12,0-.18,0-0.18-0.09s0-.07.14-0.07a1.46,1.46,0,0,0,.33,0,0.48,0.48,0,0,0,.26-0.5c0-.38,0-1.09,0-1.92V254.9Z" transform="translate(-297.71 -181.54)"/><path class="cls-3" d="M480.42,252.33a0.23,0.23,0,0,1,.16-0.23c0.07,0,.12,0,0.24.28l2.5,5.07,2.49-5.14a0.27,0.27,0,0,1,.2-0.22c0.08,0,.14.09,0.16,0.28l0.83,5.56a0.91,0.91,0,0,0,.45.91,1.82,1.82,0,0,0,.57.09c0.08,0,.14,0,0.14.06s-0.11.1-.24,0.1-1.49,0-1.86-.05c-0.21,0-.26,0-0.26-0.1a0.12,0.12,0,0,1,.1-0.1,0.37,0.37,0,0,0,0-.39l-0.55-4h0l-2,4.08a0.75,0.75,0,0,1-.34.5,0.9,0.9,0,0,1-.32-0.45c-0.22-.41-0.94-1.79-1.05-2s-0.63-1.32-.95-2h0l-0.47,3.58a3.08,3.08,0,0,0,0,.42,0.29,0.29,0,0,0,.27.29,1.72,1.72,0,0,0,.38,0c0.07,0,.14,0,0.14.06s-0.09.1-.22,0.1c-0.38,0-.79,0-1,0l-0.91,0c-0.09,0-.17,0-0.17-0.1s0.06-.06.15-0.06a1.2,1.2,0,0,0,.28,0,0.75,0.75,0,0,0,.37-0.71Z" transform="translate(-297.71 -181.54)"/><path class="cls-3" d="M489.67,254.9c0-1.37,0-1.62,0-1.91a0.44,0.44,0,0,0-.39-0.51,2,2,0,0,0-.36,0c-0.1,0-.16,0-0.16-0.08s0.07-.08.2-0.08h0.74l0.58,0h2.29l0.39-.05a0.89,0.89,0,0,1,.14,0s0.06,0,.06.08,0,0.17-.08.58c0,0.09,0,.49,0,0.59a0.1,0.1,0,0,1-.09.1c-0.07,0-.08,0-0.08-0.13a1,1,0,0,0-.05-0.32,0.58,0.58,0,0,0-.61-0.32c-0.16,0-1.12,0-1.3,0s-0.06,0-.06.09v2.28c0,0.06,0,.1.06,0.1s1.25,0,1.46,0a0.65,0.65,0,0,0,.44-0.14,0.25,0.25,0,0,1,.15-0.12,0.06,0.06,0,0,1,.06.07c0,0.05,0,.2-0.07.66,0,0.18,0,.54,0,0.6s0,0.17-.08.17a0.07,0.07,0,0,1-.08-0.08,2.86,2.86,0,0,0,0-.32,0.5,0.5,0,0,0-.51-0.35c-0.17,0-1.08,0-1.3,0,0,0-.06,0-0.06.09v0.71c0,0.31,0,1.13,0,1.4,0,0.62.17,0.75,1.1,0.75a2.36,2.36,0,0,0,.86-0.11,0.77,0.77,0,0,0,.41-0.67c0-.1,0-0.13.1-0.13s0.07,0.07.07,0.16a7.32,7.32,0,0,1-.12,1c-0.07.23-.15,0.23-0.5,0.23-0.69,0-1.19,0-1.58,0l-1,0H489.7l-0.63,0c-0.12,0-.18,0-0.18-0.09s0-.07.14-0.07a1.47,1.47,0,0,0,.33,0,0.48,0.48,0,0,0,.27-0.5c0-.38,0-1.09,0-1.92V254.9Z" transform="translate(-297.71 -181.54)"/><path class="cls-3" d="M496,257.87c0,0.7.14,0.94,0.32,1a1.4,1.4,0,0,0,.47.07c0.1,0,.16,0,0.16.07s-0.08.09-.21,0.09c-0.59,0-1,0-1.13,0s-0.51,0-1,0c-0.12,0-.2,0-0.2-0.09s0.05-.07.15-0.07a1.61,1.61,0,0,0,.41,0c0.24-.07.27-0.33,0.28-1.12l0.08-5.32c0-.18,0-0.31.12-0.31a0.69,0.69,0,0,1,.34.28c0.11,0.12,1.5,1.58,2.84,2.89,0.62,0.61,1.86,1.91,2,2.05h0l-0.09-4c0-.55-0.09-0.72-0.31-0.81a1.5,1.5,0,0,0-.49-0.05c-0.11,0-.14,0-0.14-0.08s0.1-.08.24-0.08c0.47,0,.92,0,1.11,0s0.45,0,.89,0c0.12,0,.21,0,0.21.08s-0.05.08-.17,0.08a1,1,0,0,0-.27,0c-0.26.07-.33,0.26-0.34,0.77l-0.1,5.68c0,0.2,0,.28-0.12.28a0.55,0.55,0,0,1-.31-0.2c-0.58-.54-1.75-1.72-2.7-2.64s-2-2.1-2.18-2.27h0Z" transform="translate(-297.71 -181.54)"/><path class="cls-3" d="M505.42,252.8l-1.36,0a1,1,0,0,0-.89.26,1.09,1.09,0,0,0-.15.31,0.11,0.11,0,0,1-.1.11c-0.06,0-.08,0-0.08-0.15s0.17-1,.19-1,0.05-.17.11-0.17a2.22,2.22,0,0,0,.39.11c0.26,0,.61,0,0.92,0h3.62a4.39,4.39,0,0,0,.63,0l0.25,0c0.06,0,.07.05,0.07,0.19s0,0.81,0,1,0,0.15-.08.15-0.09,0-.1-0.18v-0.1c0-.23-0.26-0.48-1.08-0.5l-1.15,0v3.69c0,0.83,0,1.54,0,1.93a0.43,0.43,0,0,0,.36.49,3.83,3.83,0,0,0,.47,0c0.1,0,.15,0,0.15.07s-0.07.09-.17,0.09c-0.6,0-1.18,0-1.43,0l-1.16,0c-0.12,0-.18,0-0.18-0.09s0-.07.15-0.07a1.46,1.46,0,0,0,.33,0,0.46,0.46,0,0,0,.26-0.5c0-.38,0-1.09,0-1.92V252.8Z" transform="translate(-297.71 -181.54)"/><path class="cls-3" d="M371.6,265.64c0-1.37,0-1.62,0-1.91a0.44,0.44,0,0,0-.39-0.51,1.78,1.78,0,0,0-.36,0c-0.1,0-.16,0-0.16-0.08s0.06-.08.2-0.08l1.34,0,1.13,0c0.13,0,.2,0,0.2.08s-0.06.08-.15,0.08a1.29,1.29,0,0,0-.26,0,0.43,0.43,0,0,0-.34.51c0,0.29,0,.54,0,1.91v1.26c0,1.3.26,1.85,0.71,2.21a1.73,1.73,0,0,0,1.15.37,1.8,1.8,0,0,0,1.26-.49,3.06,3.06,0,0,0,.53-2.23v-1.12c0-1.37,0-1.62,0-1.91a0.44,0.44,0,0,0-.39-0.51,1.68,1.68,0,0,0-.33,0c-0.1,0-.15,0-0.15-0.08s0.06-.08.19-0.08c0.47,0,1,0,1.05,0l1,0c0.13,0,.19,0,0.19.08s-0.06.08-.16,0.08a1.29,1.29,0,0,0-.27,0,0.43,0.43,0,0,0-.34.51c0,0.29,0,.54,0,1.91v1a3.38,3.38,0,0,1-.87,2.71,2.77,2.77,0,0,1-1.9.65,3,3,0,0,1-2-.62,2.93,2.93,0,0,1-.81-2.38v-1.31Z" transform="translate(-297.71 -181.54)"/><path class="cls-3" d="M380.34,268.61c0,0.7.14,0.94,0.32,1a1.45,1.45,0,0,0,.47.06c0.1,0,.16,0,0.16.07s-0.08.09-.21,0.09c-0.59,0-1,0-1.13,0s-0.51,0-1,0c-0.12,0-.2,0-0.2-0.09s0.06-.07.15-0.07a1.59,1.59,0,0,0,.41,0c0.24-.07.27-0.33,0.28-1.11l0.08-5.33c0-.18,0-0.3.12-0.3a0.69,0.69,0,0,1,.34.28c0.11,0.12,1.5,1.58,2.83,2.89,0.62,0.61,1.86,1.91,2,2.05h0l-0.09-4c0-.55-0.09-0.72-0.31-0.81a1.49,1.49,0,0,0-.49-0.05c-0.11,0-.14,0-0.14-0.08s0.1-.08.24-0.08c0.47,0,.91,0,1.11,0s0.45,0,.9,0c0.12,0,.21,0,0.21.08s-0.06.08-.17,0.08a1,1,0,0,0-.27,0c-0.26.07-.33,0.26-0.34,0.76l-0.1,5.68c0,0.2,0,.28-0.12.28a0.58,0.58,0,0,1-.31-0.2c-0.57-.54-1.75-1.72-2.7-2.65s-2-2.1-2.18-2.27h0Z" transform="translate(-297.71 -181.54)"/><path class="cls-3" d="M388.53,265.64c0-1.37,0-1.62,0-1.91a0.44,0.44,0,0,0-.31-0.5,1.21,1.21,0,0,0-.33,0c-0.09,0-.14,0-0.14-0.09s0.07-.07.22-0.07l1.19,0,1.11,0c0.12,0,.19,0,0.19.07s-0.05.09-.15,0.09l-0.27,0a0.43,0.43,0,0,0-.34.51c0,0.29,0,.54,0,1.91v1.58c0,0.87,0,1.59,0,2a0.4,0.4,0,0,0,.37.44,4.2,4.2,0,0,0,.46,0c0.1,0,.15,0,0.15.07s-0.07.09-.17,0.09c-0.6,0-1.18,0-1.43,0l-1.15,0c-0.12,0-.19,0-0.19-0.09s0-.07.15-0.07a1.64,1.64,0,0,0,.33,0,0.41,0.41,0,0,0,.26-0.45c0-.38,0-1.09,0-2v-1.58Z" transform="translate(-297.71 -181.54)"/><path class="cls-3" d="M391.87,263.91a0.9,0.9,0,0,0-.7-0.68,1.39,1.39,0,0,0-.36,0c-0.08,0-.11,0-0.11-0.08s0.1-.08.24-0.08l1.33,0c0.23,0,.67,0,1.13,0,0.11,0,.21,0,0.21.08s-0.05.08-.14,0.08a0.64,0.64,0,0,0-.36.06,0.22,0.22,0,0,0-.09.19,2.6,2.6,0,0,0,.21.69l1.57,4.08h0c0.4-1,1.58-3.88,1.8-4.48a1.08,1.08,0,0,0,.08-0.33,0.17,0.17,0,0,0-.12-0.17,1.18,1.18,0,0,0-.37,0c-0.08,0-.16,0-0.16-0.07s0.08-.09.25-0.09c0.46,0,.84,0,1,0l0.86,0c0.12,0,.19,0,0.19.08s-0.06.08-.15,0.08a0.79,0.79,0,0,0-.45.11,1.72,1.72,0,0,0-.5.81c-0.36.85-.6,1.33-1.1,2.44l-1.22,2.74a0.93,0.93,0,0,1-.42.67c-0.12,0-.18-0.13-0.35-0.55Z" transform="translate(-297.71 -181.54)"/><path class="cls-3" d="M399.38,265.64c0-1.37,0-1.62,0-1.91a0.44,0.44,0,0,0-.39-0.51,1.79,1.79,0,0,0-.36,0c-0.1,0-.16,0-0.16-0.08s0.06-.08.2-0.08h0.74l0.58,0h2.29l0.39-.05a0.89,0.89,0,0,1,.15,0s0.05,0,.05.08,0,0.17-.07.59c0,0.09,0,.49,0,0.59a0.1,0.1,0,0,1-.09.1c-0.07,0-.08,0-0.08-0.12a1,1,0,0,0-.05-0.32,0.58,0.58,0,0,0-.61-0.32c-0.16,0-1.12,0-1.3,0s-0.06,0-.06.09v2.28c0,0.06,0,.1.06,0.1,0.2,0,1.25,0,1.47,0a0.65,0.65,0,0,0,.44-0.13,0.26,0.26,0,0,1,.15-0.12,0.06,0.06,0,0,1,.06.07c0,0.05,0,.2-0.07.66,0,0.18,0,.54,0,0.6s0,0.17-.08.17a0.07,0.07,0,0,1-.08-0.08,2,2,0,0,0,0-.33,0.49,0.49,0,0,0-.51-0.35c-0.18,0-1.08,0-1.3,0,0,0-.05,0-0.05.09v0.71c0,0.31,0,1.13,0,1.39,0,0.62.17,0.75,1.1,0.75a2.41,2.41,0,0,0,.86-0.11,0.77,0.77,0,0,0,.41-0.67c0-.1,0-0.14.1-0.14s0.07,0.07.07,0.16a7,7,0,0,1-.12,1c-0.07.23-.15,0.23-0.5,0.23-0.69,0-1.19,0-1.58,0l-1,0h-0.52l-0.63,0c-0.12,0-.18,0-0.18-0.09s0-.07.14-0.07a1.63,1.63,0,0,0,.33,0,0.48,0.48,0,0,0,.26-0.5c0-.38,0-1.09,0-1.92v-1.58Z" transform="translate(-297.71 -181.54)"/><path class="cls-3" d="M405.21,265.64c0-1.37,0-1.62,0-1.91a0.45,0.45,0,0,0-.39-0.51,1.79,1.79,0,0,0-.36,0c-0.1,0-.16,0-0.16-0.08s0.06-.08.2-0.08l1.25,0,1.29,0a3,3,0,0,1,1.68.39,1.55,1.55,0,0,1,.62,1.23,2.51,2.51,0,0,1-1.21,2c0.81,1,1.45,1.81,2,2.37a1.83,1.83,0,0,0,1,.61l0.26,0c0.07,0,.11,0,0.11.07s-0.06.09-.18,0.09h-0.87a1.9,1.9,0,0,1-1-.17,4.42,4.42,0,0,1-1.25-1.32c-0.37-.49-0.79-1.11-0.91-1.24a0.19,0.19,0,0,0-.17-0.06l-0.8,0a0.06,0.06,0,0,0-.07.07v0.13c0,0.84,0,1.55,0,1.92a0.44,0.44,0,0,0,.36.5l0.45,0c0.07,0,.11,0,0.11.07s-0.06.09-.18,0.09c-0.53,0-1.21,0-1.35,0l-1.12,0c-0.12,0-.18,0-0.18-0.09s0-.07.15-0.07a1.66,1.66,0,0,0,.33,0,0.49,0.49,0,0,0,.26-0.5c0-.38,0-1.09,0-1.92v-1.58Zm1.08,0.71a0.13,0.13,0,0,0,.08.16,2.41,2.41,0,0,0,.7.09,0.93,0.93,0,0,0,.65-0.15,1.58,1.58,0,0,0,.54-1.35,1.45,1.45,0,0,0-1.4-1.65,2,2,0,0,0-.49,0,0.11,0.11,0,0,0-.08.13v2.74Z" transform="translate(-297.71 -181.54)"/><path class="cls-3" d="M411.52,269.72a0.25,0.25,0,0,1-.17-0.3c0-.49,0-1,0-1.18s0-.24.11-0.24,0.09,0.08.09,0.15a1.87,1.87,0,0,0,.08.46,1.26,1.26,0,0,0,1.31.91,1.11,1.11,0,0,0,1.23-1,1.7,1.7,0,0,0-.9-1.44l-0.42-.32a2.66,2.66,0,0,1-1.35-2.13,1.85,1.85,0,0,1,2.11-1.7,4.48,4.48,0,0,1,1.22.15,0.12,0.12,0,0,1,.13.11c0,0.12,0,.38,0,1.08,0,0.2,0,.27-0.1.27s-0.09-.05-0.09-0.16a1.09,1.09,0,0,0-.24-0.59,1.17,1.17,0,0,0-1-.44,1,1,0,0,0-1.09.93,1.68,1.68,0,0,0,1,1.3l0.25,0.19c1.1,0.84,1.5,1.44,1.5,2.29a1.81,1.81,0,0,1-.86,1.57,2.71,2.71,0,0,1-1.46.37A3.22,3.22,0,0,1,411.52,269.72Z" transform="translate(-297.71 -181.54)"/><path class="cls-3" d="M417.39,265.64c0-1.37,0-1.62,0-1.91a0.45,0.45,0,0,0-.31-0.5,1.23,1.23,0,0,0-.33,0c-0.09,0-.15,0-0.15-0.09s0.07-.07.22-0.07l1.19,0,1.11,0c0.12,0,.19,0,0.19.07s-0.05.09-.15,0.09l-0.28,0a0.43,0.43,0,0,0-.34.51c0,0.29,0,.54,0,1.91v1.58c0,0.87,0,1.59,0,2a0.4,0.4,0,0,0,.36.44l0.47,0c0.1,0,.14,0,0.14.07s-0.07.09-.17,0.09c-0.6,0-1.18,0-1.42,0l-1.16,0c-0.12,0-.18,0-0.18-0.09s0-.07.15-0.07a1.66,1.66,0,0,0,.33,0,0.41,0.41,0,0,0,.26-0.45c0-.38,0-1.09,0-2v-1.58Z" transform="translate(-297.71 -181.54)"/><path class="cls-3" d="M422.79,263.54l-1.36,0a1,1,0,0,0-.89.26,1,1,0,0,0-.16.31,0.11,0.11,0,0,1-.1.11c-0.06,0-.08,0-0.08-0.14s0.18-1,.19-1,0.05-.17.11-0.17a2.08,2.08,0,0,0,.39.11c0.26,0,.61,0,0.91,0h3.62a4.23,4.23,0,0,0,.63,0l0.25,0c0.06,0,.07.05,0.07,0.19s0,0.81,0,1,0,0.14-.08.14-0.09,0-.1-0.18v-0.1c0-.23-0.27-0.49-1.08-0.5l-1.15,0v3.69c0,0.83,0,1.54,0,1.93a0.43,0.43,0,0,0,.36.49,4.18,4.18,0,0,0,.46,0c0.1,0,.15,0,0.15.07s-0.07.09-.17,0.09c-0.6,0-1.18,0-1.44,0l-1.15,0c-0.12,0-.18,0-0.18-0.09s0-.07.15-0.07a1.66,1.66,0,0,0,.33,0,0.46,0.46,0,0,0,.26-0.5c0-.38,0-1.09,0-1.92v-3.69Z" transform="translate(-297.71 -181.54)"/><path class="cls-3" d="M429.18,267.5a1.87,1.87,0,0,0-.21-0.94c-0.06-.14-1.29-2.12-1.61-2.59a2.21,2.21,0,0,0-.63-0.66,0.94,0.94,0,0,0-.38-0.12c-0.07,0-.14,0-0.14-0.08s0.06-.08.17-0.08l1.15,0c0.19,0,.57,0,1,0,0.09,0,.14,0,0.14.08s-0.06.06-.2,0.1a0.17,0.17,0,0,0-.13.16,0.89,0.89,0,0,0,.11.31c0.13,0.27,1.41,2.44,1.56,2.69,0.09-.21,1.24-2.2,1.37-2.47a1.15,1.15,0,0,0,.13-0.47,0.22,0.22,0,0,0-.19-0.23,0.17,0.17,0,0,1-.17-0.09c0-.06,0-0.08.15-0.08l0.86,0,1,0c0.1,0,.17,0,0.17.07s-0.07.09-.17,0.09a1,1,0,0,0-.4.11,1.34,1.34,0,0,0-.49.44,28.87,28.87,0,0,0-1.75,2.86,2.12,2.12,0,0,0-.14.9v0.74c0,0.14,0,.52,0,0.9a0.44,0.44,0,0,0,.37.5l0.46,0c0.1,0,.15,0,0.15.07s-0.07.09-.19,0.09c-0.58,0-1.15,0-1.4,0l-1.14,0c-0.13,0-.2,0-0.2-0.09s0-.07.14-0.07a1.62,1.62,0,0,0,.32,0,0.47,0.47,0,0,0,.28-0.5c0-.38,0-0.75,0-0.9V267.5Z" transform="translate(-297.71 -181.54)"/></svg>